<?xml version="1.0" standalone="no"?>
<!DOCTYPE svg PUBLIC "-//W3C//DTD SVG 20010904//EN"
 "http://www.w3.org/TR/2001/REC-SVG-20010904/DTD/svg10.dtd">
<svg version="1.0" xmlns="http://www.w3.org/2000/svg"
 width="504.000000pt" height="504.000000pt" viewBox="0 0 504.000000 504.000000"
 preserveAspectRatio="xMidYMid meet">
<metadata>
Created by potrace 1.14, written by Peter Selinger 2001-2017
</metadata>
<g transform="translate(0.000000,504.000000) scale(0.100000,-0.100000)"
fill="#000000" stroke="none">
<path d="M10 4865 l0 -165 95 0 c57 0 95 -4 95 -10 0 -6 -38 -10 -95 -10 l-95
0 0 -140 0 -140 95 0 c57 0 95 -4 95 -10 0 -6 -38 -10 -95 -10 l-95 0 0 -140
0 -140 95 0 c57 0 95 -4 95 -10 0 -6 -38 -10 -95 -10 l-95 0 0 -140 0 -140 95
0 c57 0 95 -4 95 -10 0 -6 -38 -10 -95 -10 l-95 0 0 -140 0 -140 95 0 c57 0
95 -4 95 -10 0 -6 -38 -10 -95 -10 l-95 0 0 -140 0 -140 95 0 c57 0 95 -4 95
-10 0 -6 -38 -10 -95 -10 l-95 0 0 -140 0 -140 95 0 c57 0 95 -4 95 -10 0 -6
-38 -10 -95 -10 l-95 0 0 -140 0 -140 95 0 c57 0 95 -4 95 -10 0 -6 -38 -10
-95 -10 l-95 0 0 -140 0 -140 95 0 c57 0 95 -4 95 -10 0 -6 -38 -10 -95 -10
l-95 0 0 -140 0 -140 95 0 c57 0 95 -4 95 -10 0 -6 -38 -10 -95 -10 l-95 0 0
-140 0 -140 95 0 c57 0 95 -4 95 -10 0 -6 -38 -10 -95 -10 l-95 0 0 -140 0
-140 95 0 c57 0 95 -4 95 -10 0 -6 -38 -10 -95 -10 l-95 0 0 -140 0 -140 95 0
c57 0 95 -4 95 -10 0 -6 -38 -10 -95 -10 l-95 0 0 -140 0 -140 95 0 c57 0 95
-4 95 -10 0 -6 -38 -10 -95 -10 l-95 0 0 -140 0 -140 95 0 c57 0 95 -4 95 -10
0 -6 -38 -10 -95 -10 l-95 0 0 -65 0 -64 98 -4 97 -3 -97 -2 -98 -2 0 -165 0
-165 165 0 165 0 0 95 c0 57 4 95 10 95 6 0 10 -38 10 -95 l0 -95 140 0 140 0
0 95 c0 57 4 95 10 95 6 0 10 -38 10 -95 l0 -95 140 0 140 0 0 95 c0 57 4 95
10 95 6 0 10 -38 10 -95 l0 -95 140 0 140 0 0 95 c0 57 4 95 10 95 6 0 10 -38
10 -95 l0 -95 140 0 140 0 0 95 c0 57 4 95 10 95 6 0 10 -38 10 -95 l0 -95
140 0 140 0 0 95 c0 57 4 95 10 95 6 0 10 -38 10 -95 l0 -95 140 0 140 0 0 95
c0 57 4 95 10 95 6 0 10 -38 10 -95 l0 -95 140 0 140 0 0 95 c0 57 4 95 10 95
6 0 10 -38 10 -95 l0 -95 140 0 140 0 0 95 c0 57 4 95 10 95 6 0 10 -38 10
-95 l0 -95 140 0 140 0 0 95 c0 57 4 95 10 95 6 0 10 -38 10 -95 l0 -95 140 0
140 0 0 95 c0 57 4 95 10 95 6 0 10 -38 10 -95 l0 -95 140 0 140 0 0 95 c0 57
4 95 10 95 6 0 10 -38 10 -95 l0 -95 140 0 140 0 0 95 c0 57 4 95 10 95 6 0
10 -38 10 -95 l0 -95 140 0 140 0 0 95 c0 57 4 95 10 95 6 0 10 -38 10 -95 l0
-95 140 0 140 0 0 95 c0 57 4 95 10 95 6 0 10 -38 10 -95 l0 -95 65 0 64 0 4
98 3 97 2 -97 2 -98 165 0 165 0 0 165 0 164 -97 4 -98 3 98 2 97 2 0 65 0 65
-95 0 c-57 0 -95 4 -95 10 0 6 38 10 95 10 l95 0 0 140 0 140 -95 0 c-57 0
-95 4 -95 10 0 6 38 10 95 10 l95 0 0 140 0 140 -95 0 c-57 0 -95 4 -95 10 0
6 38 10 95 10 l95 0 0 140 0 140 -95 0 c-57 0 -95 4 -95 10 0 6 38 10 95 10
l95 0 0 140 0 140 -95 0 c-57 0 -95 4 -95 10 0 6 38 10 95 10 l95 0 0 140 0
140 -95 0 c-57 0 -95 4 -95 10 0 6 38 10 95 10 l95 0 0 140 0 140 -95 0 c-57
0 -95 4 -95 10 0 6 38 10 95 10 l95 0 0 140 0 140 -95 0 c-57 0 -95 4 -95 10
0 6 38 10 95 10 l95 0 0 140 0 140 -95 0 c-57 0 -95 4 -95 10 0 6 38 10 95 10
l95 0 0 140 0 140 -95 0 c-57 0 -95 4 -95 10 0 6 38 10 95 10 l95 0 0 140 0
140 -95 0 c-57 0 -95 4 -95 10 0 6 38 10 95 10 l95 0 0 140 0 140 -95 0 c-57
0 -95 4 -95 10 0 6 38 10 95 10 l95 0 0 140 0 140 -95 0 c-57 0 -95 4 -95 10
0 6 38 10 95 10 l95 0 0 140 0 140 -95 0 c-57 0 -95 4 -95 10 0 6 38 10 95 10
l95 0 0 140 0 140 -95 0 c-57 0 -95 4 -95 10 0 6 38 10 95 10 l95 0 0 165 0
165 -165 0 -164 0 -4 -97 -3 -98 -2 98 -2 97 -65 0 -65 0 0 -95 c0 -57 -4 -95
-10 -95 -6 0 -10 38 -10 95 l0 95 -140 0 -140 0 0 -95 c0 -57 -4 -95 -10 -95
-6 0 -10 38 -10 95 l0 95 -140 0 -140 0 0 -95 c0 -57 -4 -95 -10 -95 -6 0 -10
38 -10 95 l0 95 -140 0 -140 0 0 -95 c0 -57 -4 -95 -10 -95 -6 0 -10 38 -10
95 l0 95 -140 0 -140 0 0 -95 c0 -57 -4 -95 -10 -95 -6 0 -10 38 -10 95 l0 95
-140 0 -140 0 0 -95 c0 -57 -4 -95 -10 -95 -6 0 -10 38 -10 95 l0 95 -140 0
-140 0 0 -95 c0 -57 -4 -95 -10 -95 -6 0 -10 38 -10 95 l0 95 -140 0 -140 0 0
-95 c0 -57 -4 -95 -10 -95 -6 0 -10 38 -10 95 l0 95 -140 0 -140 0 0 -95 c0
-57 -4 -95 -10 -95 -6 0 -10 38 -10 95 l0 95 -140 0 -140 0 0 -95 c0 -57 -4
-95 -10 -95 -6 0 -10 38 -10 95 l0 95 -140 0 -140 0 0 -95 c0 -57 -4 -95 -10
-95 -6 0 -10 38 -10 95 l0 95 -140 0 -140 0 0 -95 c0 -57 -4 -95 -10 -95 -6 0
-10 38 -10 95 l0 95 -140 0 -140 0 0 -95 c0 -57 -4 -95 -10 -95 -6 0 -10 38
-10 95 l0 95 -140 0 -140 0 0 -95 c0 -57 -4 -95 -10 -95 -6 0 -10 38 -10 95
l0 95 -140 0 -140 0 0 -95 c0 -57 -4 -95 -10 -95 -6 0 -10 38 -10 95 l0 95
-165 0 -165 0 0 -165z"/>
</g>
</svg>
